<svg xmlns="http://www.w3.org/2000/svg" viewBox="0 0 500.99 513.6"><defs><style>.cls-1{isolation:isolate;}.cls-10,.cls-11,.cls-13,.cls-2,.cls-3,.cls-4,.cls-5,.cls-9{stroke:#000;}.cls-12,.cls-13,.cls-14,.cls-15,.cls-2,.cls-3,.cls-4,.cls-5{stroke-linecap:round;}.cls-10,.cls-11,.cls-12,.cls-13,.cls-15,.cls-2,.cls-3,.cls-4,.cls-5,.cls-9{stroke-miterlimit:10;}.cls-13,.cls-3,.cls-4,.cls-5{stroke-width:4px;}.cls-4{fill:#a04d6f;}.cls-5{fill:#dc668e;}.cls-6{fill:#fff;}.cls-7,.cls-8{fill:#9b4667;}.cls-16,.cls-7{mix-blend-mode:multiply;}.cls-7{opacity:0.75;}.cls-10{fill:#e6e6e6;}.cls-11,.cls-12,.cls-13,.cls-14,.cls-15{fill:none;}.cls-12,.cls-14{stroke:#c12929;}.cls-12,.cls-14,.cls-15{stroke-width:2px;}.cls-14{stroke-linejoin:round;}.cls-15{stroke:red;}.cls-17{fill:#bc0c50;}</style></defs><g class="cls-1"><g id="Слой_1" data-name="Слой 1"><path class="cls-2" d="M785.82,768.83c-2.66-5.3,8.33-4.55,5.69-11-22-14.27-22.43-37.23-44.36-57.2-56.35-81-64.27-84.73-155.51-103.91-72.65-4.4-94.49-14.3-154.83,42.12-9.1,5.69-8.34,1.9-22.36,4.92-19.81.35-93.15,115-117.56,148.2a.86.86,0,0,0,.32,1.26l0,0a14.06,14.06,0,0,0,4.69,1.77c5.22.81,10.42,2,15.68,2.54,7.11.68,14.21,1.39,21.34,1.82,6.58.39,13.16.77,19.74,1l29.39-.11c12.71-.63,25.42-1.62,38.15-1.28,6.43.17,12.86.24,19.28.28,21-1.53,42.27,2.36,63.18-1.18a5.12,5.12,0,0,1,2.87.29,5.76,5.76,0,0,1,1.27-.09,114.61,114.61,0,0,0,26.37-1.27c11.81-2.16,23.36-2.41,35.16-1.86,19.79.92,39.6,1.7,59.41,2.1,9.84.2,19.74.54,29.57.17,9.51-.36,19-1.66,28.49-1.88,9.2-.22,18.13,1.48,27.24,2.46,9.55,1,19,.35,28.53-.66a232,232,0,0,1,28.26-1.49,51.9,51.9,0,0,0,14-1.19c1.88-.48,3.64-1.06,5.44-1.53a1.89,1.89,0,0,0,1.23-2.66C792.75,782.84,787.46,772.12,785.82,768.83Z" transform="translate(-296.23 -287.3)"/><path class="cls-3" d="M464.73,587.88c-6.6,11.87.75,28.16,2.84,32.78,4.95,11,12.71,18.71,28,29.39,33.17,23.12,49.75,34.68,66.88,31.62,29.82-5.32,44.58-41,48.7-51,5.52-13.36,8.89-21.5,5.87-30.32-9.35-27.38-68.33-26.83-100-26.53C474,574.27,466.88,584,464.73,587.88Z" transform="translate(-296.23 -287.3)"/><path class="cls-4" d="M545.19,669.17l-4.3-10.66-6.63-2.42s-10.61-26-5.87-27.66,69.35-27.85,74.08-23.68-59.25,36.76-57.28,40.92,5.81,23.5,2.9,23.5Z" transform="translate(-296.23 -287.3)"/><path class="cls-5" d="M442.94,499s-16.3-7.2-23.88,10.61C409,552.46,474.35,542.43,442.94,499Z" transform="translate(-296.23 -287.3)"/><path class="cls-5" d="M622.56,509.63C651,468.42,668,545,640.37,551.42,617.2,562.73,587.44,526.79,622.56,509.63Z" transform="translate(-296.23 -287.3)"/><path class="cls-5" d="M447.11,497.13c-17.29,157,208.94,154.09,178.85-18.2C636.52,376.19,431.24,310,447.11,497.13Z" transform="translate(-296.23 -287.3)"/><path class="cls-6" d="M517.42,514.71c3.54,16.06-12,22.54-32,22.81-16.89.23-29.88-12.86-29.07-26.46s15.15-23.82,32-22.81S514.49,501.4,517.42,514.71Z" transform="translate(-296.23 -287.3)"/><path class="cls-6" d="M606.3,505.07c2,12.75-12.9,23.79-28.71,26.22s-30.21-5.95-32.17-18.7,9.27-25.06,25.08-27.48S604.35,492.32,606.3,505.07Z" transform="translate(-296.23 -287.3)"/><path d="M456.63,501.42A34.41,34.41,0,0,1,497,486.88a43.15,43.15,0,0,1,22.25,15.93,3.31,3.31,0,1,1-5.47,3.72,34.73,34.73,0,0,0-11.33-10.83c-14.75-9.21-32.33-6.65-42.43,7.87a2,2,0,0,1-3.37-2.15Z" transform="translate(-296.23 -287.3)"/><path d="M544.64,501.17c4.91-10.81,15.73-18.78,27.65-19.37a40.31,40.31,0,0,1,31.1,12.58,2,2,0,0,1-2.92,2.74,33.71,33.71,0,0,0-12.8-8.26c-15.25-5.89-31.14-.63-37.89,14.56a2.81,2.81,0,1,1-5.14-2.25Z" transform="translate(-296.23 -287.3)"/><path d="M606.56,515.58c-3.4,9.94-15.68,17-25.59,18.64-5.38.89-10.86.18-16.1-1-4.55-1-9.32-2-13.52-4.38-2.38-.88-.88-4.05.76-5.09l.81-.55c.93-.58,1.21-1,1.71-.65a22.14,22.14,0,0,0,4.77,2c6.64,1.88,13.75,4,20.73,3.22a34.14,34.14,0,0,0,13-4.42,27.1,27.1,0,0,0,8-6.44,12.23,12.23,0,0,0,1.78-2.78,2,2,0,0,1,3.74,1.38Z" transform="translate(-296.23 -287.3)"/><path d="M517.69,530.56a8.8,8.8,0,0,1-4.22,3.6,62,62,0,0,1-11.35,3.67c-11.22,3.26-20.43,2.26-31-2.67-4.9-2.29-9.63-4.46-13.4-8.71a2,2,0,1,1,3.08-2.56,21.53,21.53,0,0,0,5.48,4c8.32,4.34,17.86,8,27.36,6.34,5.59-1.23,11.94-2.84,17.15-5.33a5.44,5.44,0,0,0,1.55-1.1,3,3,0,0,1,5.33,2.72Z" transform="translate(-296.23 -287.3)"/><path class="cls-7" d="M425.88,473.91s8.05,75,90.54,64.28,81.19-3.93,116.56-38.42-153-70.54-171.44-61.66S425.88,473.91,425.88,473.91Z" transform="translate(-296.23 -287.3)"/><path class="cls-8" d="M650.73,511.78c3.67,16.93-4.14,7-11.26,7s-9.06.16-9.06-7,2-12.89,9.06-12.89S649.22,504.82,650.73,511.78Z" transform="translate(-296.23 -287.3)"/><path class="cls-8" d="M444.14,509c2,16.83-5.61,8.8-11,6.56-6.58-2.73-15.09,1.79-12.28-6.31,2.34-6.72,8-10.36,14.08-12.88C441.48,493.65,443.29,501.93,444.14,509Z" transform="translate(-296.23 -287.3)"/><path class="cls-9" d="M661.59,497.56c9.25-8.55,16-19.6,25.39-18.25-1.22-31.71,11.08-19.38-4.93-51.53,32.82,18.65-3.35-36.09-5.68-46.61-3.34-14.81-32.92-26.41,1.89-25.77-3-16.87-47.63-30.5-59.12-23.87,0,0-10.6-33.35-45.85-43.58,0,0-1.89,15.53,3,19.32-6.74-16.91-68.38-3.93-76.55-4.54-8-3-34.11-2.66-35.62-2.28,4.82,14.61-10.06,15.74-15.92,24.63,25.49.79,13.93-.52,0,11.75-6.65,20-85.07,59.65-39.41,94.36-2.44,5.93,2.85,41.95,3.8,50.4-1.52,3,12.77,2.56,15.91,9.47,12.5,41.1,15.59,12.05,21.73-6.06,10.86-18.95,2.52,0,7.82-18.95,15.23,24.23,32.28,5.53,54.2,7.58,2.27,3.79,1.13-6.82,4.54-6.82s.76,12.51,3.41,12.51,27.67,9.47,35.24,3.79,3-11,4.93-12.13c2.49,4.56,16.06,7.84,19.71,12.88,21,4.17,19.83-6.24,35.62,20.85,3.93,7-3,25.7,4.17,21s6.82-20.63,14-21C647,505.75,668.31,513.39,661.59,497.56Z" transform="translate(-296.23 -287.3)"/><path class="cls-10" d="M485.76,608.4l45.47,35.38V658.7s-40.57-28.22-45.47-47.08" transform="translate(-296.23 -287.3)"/><path class="cls-10" d="M553.59,657.73C568,664.85,590.35,621,590.35,621l-39,18.19Z" transform="translate(-296.23 -287.3)"/><path class="cls-5" d="M491.82,534.26c2.12,23-3,11.26-20.46,15.54-31.51,27.71-39.51,67.34,2.65,17.43,8.83-.51,46.47,9.48,31.94,19-3.17,2.07-23.6-8.81-28.15.72-18.31,19.92,9.47,30.69,16.3,49.26.37,4.55-20.85,28.42-29.94,33.35s-38.28-13.27-36.38-15.16,7.53-8.72,5.85-10.23-42.23-40.46-41.09-41.83-2.28-2.13,11.37-29.41,25.38-41.31,25.38-41.31H452s6.44-8,9.85-5.15c11.8,8.06-13,17.83-17.81,23-2.27.38-7,4.06-9.81,9-23.42,63.5,21.44-25.6,33.31-25.66C475.53,532.75,491.82,534.26,491.82,534.26Z" transform="translate(-296.23 -287.3)"/><path class="cls-5" d="M588.07,545.25s14.34-6,19-5.36c57.77,7.27,7.36,64.13,50.7,113.37,7.5,10.68-21.92,21.51-34,23.87-.19-14.65-3.39.22-24-6.74-7-24.28,2.9-53.71-46.72-42.42-7.05,1.61-4.06-16.5,4.66-13.54,4.17.55,33.35-9.3,36-2.86-5.14-17.56-80.16-4.55-46.62-30.7,7.21,1.14,45.86,5.69,49.65,11.75,0,0,7.68-9.85,1.62-14-3.66-11.07-24-11.62-34.21-13.64-3.41-.76,1.35-11.83,9.68-12.21,25.83-2,36.5,11.47,44.51,31.16,0,0,1.34-24,.58-25.5C617.42,553.72,575.84,556.36,588.07,545.25Z" transform="translate(-296.23 -287.3)"/><path class="cls-11" d="M465.29,386.22" transform="translate(-296.23 -287.3)"/><path class="cls-12" d="M323.82,779.32c7.89.42,11.58-27.65,23.24-26.78,9.1-2.53,53.56-68.21,53.56-68.21s28.11-17.09,30.06-26.6" transform="translate(-296.23 -287.3)"/><path class="cls-12" d="M469.08,672.58c-5.24,16.33-26,38.68-5.3,56.21-1,3-25.26,67.2-25.26,67.2" transform="translate(-296.23 -287.3)"/><path class="cls-12" d="M622.43,677.13c-2.52,1.13-.5,18.06,2.28,27.41s-5.06.25-7.33,6.57c-.44,6-1,8.77-1.72,10.11a19.51,19.51,0,0,0-.35,17.36c8.28,18.52,17.76,49.13,21,55.89" transform="translate(-296.23 -287.3)"/><path class="cls-12" d="M655.78,655.53c26.94,3.11,6.37,15.73,32.08,26.52,10.61,23.85,45.59,53.11,58.11,73,2.52.76,14.15,2.28,18.69,7.83" transform="translate(-296.23 -287.3)"/><line class="cls-12" x1="353.74" y1="454.37" x2="348.94" y2="475.59"/><line class="cls-12" x1="366.62" y1="454.37" x2="361.82" y2="471.3"/><path class="cls-13" d="M635.38,519.53c1.79-1,4.21-2,5.69-.54a4.92,4.92,0,0,1,1.09,3.13,26,26,0,0,1-.11,8.72c-.69,2.84-2.56,5.57-5.34,6.47a10.85,10.85,0,0,1,2.57-9.46" transform="translate(-296.23 -287.3)"/><path class="cls-13" d="M438,512.81c-2.46-.31-5.39.22-6.57,2.4a7.74,7.74,0,0,0-.65,3.35l-.28,6.42a28.37,28.37,0,0,0,4.66,2,2.09,2.09,0,0,0,1.2.15c.74-.2,1-1.07,1.21-1.82.37-1.58.72-3.35-.12-4.74s-3.42-1.56-3.83,0" transform="translate(-296.23 -287.3)"/><line class="cls-12" x1="377.74" y1="455.63" x2="371.67" y2="471.3"/><line class="cls-12" x1="301.95" y1="465.99" x2="296.64" y2="483.68"/><line class="cls-12" x1="294.11" y1="462.83" x2="285.52" y2="479.63"/><line class="cls-12" x1="285.52" y1="457.91" x2="279.46" y2="475.59"/><line class="cls-12" x1="188.01" y1="464.98" x2="184.22" y2="479.63"/><line class="cls-12" x1="178.16" y1="462.83" x2="172.85" y2="475.59"/><line class="cls-12" x1="197.61" y1="469.21" x2="192.3" y2="479.63"/><path class="cls-12" d="M496.37,641.13s-1.77,13.64,0,14.4c5.92,0,18.69,24.62,26.52,20.21" transform="translate(-296.23 -287.3)"/><path class="cls-14" d="M570.64,674.22s24.51-20,21.22-22.48,2.28-11.37-13.13,0-24,11.62-24,11.62c-.55,9.12-14.11,20-14.15,2.27,6.62,11.87-11.67,8.28-6.57-.25,2.78-2.78-17.43,5.3-34.61-24.25" transform="translate(-296.23 -287.3)"/><path class="cls-15" d="M726,608.4" transform="translate(-296.23 -287.3)"/><rect class="cls-10" x="418.77" y="657.89" width="49.26" height="25.01" rx="6.96" transform="translate(-1.82 -406.74) rotate(22.8)"/><rect class="cls-10" x="617.87" y="657.89" width="49.26" height="25.01" rx="6.96" transform="translate(-545.35 123.76) rotate(-30)"/><path class="cls-10" d="M554.06,704.57c-2.24,6.7-5.73,12.8-12.79,12.8a12.8,12.8,0,1,1,0-25.59C548.33,691.78,556.62,696.91,554.06,704.57Z" transform="translate(-296.23 -287.3)"/><path class="cls-10" d="M554.06,741.67c.87,7-5.73,12.8-12.79,12.8a12.8,12.8,0,0,1-12.8-12.8c0-7.06,6-10.35,13-10.35S553.15,734.28,554.06,741.67Z" transform="translate(-296.23 -287.3)"/><path class="cls-10" d="M552.67,779.52c-2.24,6.71-5.73,12.8-12.79,12.8s-9.08-6.78-12.8-12.8c-4.19-6.78,6.14-15.15,12.8-12.79C545.78,768.82,555.23,771.86,552.67,779.52Z" transform="translate(-296.23 -287.3)"/><g class="cls-16"><path class="cls-17" d="M494.23,499.12c-3.91-1.3-8.23-2.49-12.17-.63a14.2,14.2,0,0,0-4.54,3.8,19.72,19.72,0,0,0-3.4,5,7.27,7.27,0,0,0-.22,5.66,11.63,11.63,0,0,0,3.77,4.44,36.47,36.47,0,0,0,10.69,5.92c3.44,1.2,8,2.52,11.2,0,2.68-2.12,3.1-6.15,1.95-9.2-2.32-6.13-11.11-10.33-16.54-5.31a5.38,5.38,0,0,0-1.61,5.55,5.48,5.48,0,0,0,4.93,3.43,4.16,4.16,0,0,0,4.36-3.1,3.24,3.24,0,0,0-3.41-3.86,1.55,1.55,0,0,0-1.5,1.5,1.5,1.5,0,0,0,1.5,1.5c.48-.06.58.15.33.54-.34.55-1.2.46-1.71.33a2,2,0,0,1-1.59-2.66c.81-2.07,3.73-2.61,5.67-2.33,4.15.6,8.13,4.85,7,9.22-.68,2.62-3.13,3.09-5.52,2.66a29.62,29.62,0,0,1-7.82-2.66,30.3,30.3,0,0,1-7-4.71,6.19,6.19,0,0,1-2-2.78,5.47,5.47,0,0,1,.93-4.12c1.45-2.44,3.77-5.44,6.53-6.42,3.08-1.1,6.5.11,9.45,1.1,1.83.61,2.62-2.29.79-2.9Z" transform="translate(-296.23 -287.3)"/></g><g class="cls-16"><path class="cls-17" d="M581.35,493.4a17.92,17.92,0,0,0-17.34,6c-2.21,2.72-3.48,6.05-2.49,9.54a12.42,12.42,0,0,0,6.34,7.43A22.9,22.9,0,0,0,578,518.7c3,0,6.49-.89,7.91-3.88s.47-6.87-1.69-9.38a8.49,8.49,0,0,0-8.4-2.69c-3,.71-7.53,4.55-4.77,7.81,1.59,1.89,8.73,4.42,9.43.5.34-1.89-2.56-2.7-2.9-.8.1-.52.49,0-.14-.18-.2-.05-.43-.06-.62-.09a11.63,11.63,0,0,1-1.84-.5,4.21,4.21,0,0,1-1.48-.7c-.41-.42-.17-.79.14-1.24a5.28,5.28,0,0,1,5.4-1.92,6.1,6.1,0,0,1,4.28,4.21c.65,2.12.2,4.46-2,5.36-2,.83-4.55.54-6.68.19a15.74,15.74,0,0,1-7.06-2.74,8.66,8.66,0,0,1-3.35-5.47c-.32-2.43,1-4.67,2.57-6.4a14.93,14.93,0,0,1,13.78-4.48c1.88.39,2.69-2.5.8-2.9Z" transform="translate(-296.23 -287.3)"/></g><g class="cls-16"><path class="cls-8" d="M485.67,556.66a8.46,8.46,0,0,0,2.17,4.29,4.26,4.26,0,0,0,4.62.71,3.16,3.16,0,0,0,1.69-2,1.5,1.5,0,1,0-2.9-.8l0,.12c-.06.14,0,.08.08-.18a.75.75,0,0,0-.09.15c-.12.21.28-.29.07-.09a1,1,0,0,0-.15.14c.26-.27.24-.18.11-.09L491,559c-.21.11.37-.13.13,0l-.18,0-.25.05c.45-.1.29,0,.14,0a3.38,3.38,0,0,1-.45,0c-.27,0,.38.07.14,0l-.26-.06-.19-.06c-.24-.08.37.19.1,0l-.2-.12c-.13-.08-.14-.17.08.08-.13-.15-.3-.26-.43-.41l-.11-.13.13.18a2.75,2.75,0,0,0-.19-.28,3.72,3.72,0,0,1-.27-.48c-.05-.09-.09-.18-.13-.27-.14-.28.13.34,0,0s-.15-.38-.21-.57c-.13-.38-.24-.77-.34-1.16a1.5,1.5,0,1,0-2.89.8Z" transform="translate(-296.23 -287.3)"/></g><g class="cls-16"><path class="cls-8" d="M561.06,542.24a12.6,12.6,0,0,0,2.31,5.33,2.54,2.54,0,0,0,1.68,1.06,2.58,2.58,0,0,0,1.91-.56,6.34,6.34,0,0,0,2.61-5.46,1.5,1.5,0,0,0-3,0,5,5,0,0,1,0,.67,1,1,0,0,1,0,.17c0,.16,0,.11,0-.15a3.23,3.23,0,0,0-.06.33,5.18,5.18,0,0,1-.17.56l-.06.16c.1-.23.11-.27.05-.13l-.15.3c-.11.2-.27.37-.37.57.16-.31.13-.16,0,0l-.23.25-.25.22a.69.69,0,0,1-.13.11c.2-.15.23-.17.1-.08l-.31.2c.22-.09.25-.1.1-.06a.93.93,0,0,1,.65.1c-.13-.07-.09,0,.11.11a1.73,1.73,0,0,0-.23-.24c.15.2.18.24.09.11l-.11-.16-.21-.32a10.4,10.4,0,0,1-.69-1.27s-.12-.34-.16-.35c.09.21.1.24,0,.09l-.07-.18c-.08-.21-.16-.42-.22-.64a11.22,11.22,0,0,1-.38-1.49,1.49,1.49,0,0,0-1.84-1.05,1.53,1.53,0,0,0-1.05,1.84Z" transform="translate(-296.23 -287.3)"/></g><g class="cls-16"><path class="cls-8" d="M513.32,594.9l0,3.63a3,3,0,0,0,.6,2.28,2.4,2.4,0,0,0,2.25.56,5.94,5.94,0,0,0,1.49-.56,6.7,6.7,0,0,0,1.08-.67,8.56,8.56,0,0,0,2.17-2.36,8.08,8.08,0,0,0,1.1-3.37,1.46,1.46,0,0,0-.44-1.06,1.5,1.5,0,0,0-2.12,0,1.77,1.77,0,0,0-.44,1.06c0,.26.07-.39,0,0,0,.08,0,.16,0,.24s-.09.37-.14.55-.13.33-.18.5.14-.31.07-.17a1,1,0,0,1-.07.15c0,.09-.08.17-.13.26s-.17.31-.26.46-.11.16-.16.24-.24.31-.08.11,0,0-.09.1-.11.13-.16.19-.27.27-.41.4l-.21.19s-.28.22-.08.07,0,0-.11.07l-.24.16c-.15.09-.3.18-.46.26l-.26.13c-.29.13.25-.09,0,0l-.5.17c-.32.08.3,0,.06,0h-.12c-.17,0,.35,0,.19,0s.25.11.29.15a1.38,1.38,0,0,1,.37.52s0-.22,0,0,0,.07,0,0c0-.25,0-.52,0-.77l0-3.52a1.5,1.5,0,0,0-1.5-1.5,1.52,1.52,0,0,0-1.5,1.5Z" transform="translate(-296.23 -287.3)"/></g><g class="cls-16"><path class="cls-8" d="M527.54,501.21a18,18,0,0,0,2.16,9.48,4.68,4.68,0,0,0,3.74,2.65,4.42,4.42,0,0,0,3.85-2.4c1-1.8.7-3.84.41-5.76a1.51,1.51,0,0,0-1.85-1.05A1.54,1.54,0,0,0,534.8,506a11.09,11.09,0,0,1,.18,2.25,3.44,3.44,0,0,1-.18,1c0,.12,0,.12,0,0l-.15.28s-.25.38-.12.21a1.69,1.69,0,0,1-.51.47c-.09.06-.18.1-.27.15.11-.05.11-.06,0,0l-.21.05c.15,0,.14,0,0,0s.08.1-.19,0,.18.17-.18-.1,0,.09-.16-.12a2.08,2.08,0,0,1-.21-.21c-.11-.13-.13-.16-.08-.09a11.09,11.09,0,0,1-1.67-3.87,15.51,15.51,0,0,1-.48-4.71,1.51,1.51,0,0,0-1.5-1.5,1.53,1.53,0,0,0-1.5,1.5Z" transform="translate(-296.23 -287.3)"/></g><g class="cls-16"><path class="cls-8" d="M458.31,477.94c-.25,2.26-.25,5,1.59,6.68a4.49,4.49,0,0,0,4,1,3.77,3.77,0,0,0,1.25-6.81,1.5,1.5,0,0,0-1.51,2.59c.19.13-.14-.11-.14-.11s.09.07.11.09.18.31,0,0c.05.08.11.15.15.23s.07.11.06.13-.13-.37-.07-.17.05.18.07.27c.08.36,0-.29,0,0a2.81,2.81,0,0,1,0,.29.61.61,0,0,1,0,.14s.09-.43,0-.15a2.17,2.17,0,0,1-.07.24l0,.13c.07-.34.13-.27.06-.16s-.09.16-.14.24.11-.15.11-.13-.1.11-.12.13l-.12.11c-.13.12.28-.19.12-.1a1.83,1.83,0,0,1-.26.16c-.28.15.28-.09,0,0l-.37.1c-.25.06.39,0,.05,0-.11,0-.21,0-.32,0h-.15c-.19,0,.35.06.16,0l-.34-.08-.15-.05c-.13,0-.13-.11.14.06-.08-.05-.17-.08-.25-.12s-.35-.25-.14-.08-.09-.09-.14-.14-.14-.17-.21-.23.22.31.09.12a.57.57,0,0,1-.08-.13,4,4,0,0,1-.29-.54c.21.41.06.13,0,0l-.09-.3c0-.1,0-.21-.07-.31l0-.16c0-.06,0-.31,0,0s0,.09,0,0a2.11,2.11,0,0,1,0-.25l0-.37q0-.37,0-.75,0-.77.12-1.53a1.5,1.5,0,0,0-.44-1.06,1.52,1.52,0,0,0-1.06-.44,1.54,1.54,0,0,0-1.5,1.5Z" transform="translate(-296.23 -287.3)"/></g><g class="cls-16"><path class="cls-8" d="M541.52,549.14a19.41,19.41,0,0,0,.91,4.13,9.28,9.28,0,0,0,1.92,3.63,3.48,3.48,0,0,0,4.31.36,12,12,0,0,0,4.06-7.85,1.54,1.54,0,0,0-1.5-1.5,1.52,1.52,0,0,0-1.5,1.5c0,.19,0,.38,0,.57s0,.19,0,0a1.55,1.55,0,0,1,0,.21,6.91,6.91,0,0,1-.3,1c-.11.3.08-.13-.08.17s-.17.35-.26.52-.33.6-.5.89l-.51.83-.3.45c-.17.26.14-.13-.09.12l-.36.38c-.27.26.2-.09-.11.09l-.22.12c-.16.08-.15.08,0,0l-.25.07h-.05c.12,0,.1,0,0,0h0c-.17-.05-.16,0,0,0l-.2-.12c.21.13.06,0-.05-.07s-.11-.12,0,0a2.43,2.43,0,0,1-.14-.2,8.14,8.14,0,0,1-.41-.77l-.18-.41c-.08-.16-.08-.18,0,0a2.33,2.33,0,0,0-.11-.28,16.73,16.73,0,0,1-.63-2c-.09-.33-.16-.67-.23-1,0-.19-.07-.38-.1-.58s0-.19-.05-.29c0,.15,0,.14,0,0a1.53,1.53,0,0,0-1.5-1.5c-.73,0-1.6.66-1.5,1.5Z" transform="translate(-296.23 -287.3)"/></g><g class="cls-16"><path class="cls-8" d="M436.5,617.52c0,.06,0,.3,0,0a1.49,1.49,0,0,0,0,.21c0,.17,0,.33,0,.5,0,.38,0,.76.05,1.14a10.42,10.42,0,0,0,.31,2.15,5,5,0,0,0,2.32,3.13,4.22,4.22,0,0,0,4.1-.21,6.3,6.3,0,0,0,2.54-3.17,32,32,0,0,0,1-4.22,1.5,1.5,0,1,0-2.9-.8c-.26,1.07-.39,2.18-.67,3.25a7.24,7.24,0,0,1-.25.79c0,.11-.16.35-.05.12l-.18.38-.17.27-.1.14s.19-.22.07-.09a4,4,0,0,1-.54.55l-.12.11s.23-.16.08-.07l-.27.17c-.09.06-.19.1-.28.15s.1,0,.11,0a.89.89,0,0,0-.19.07c-.08,0-.43.08-.21.06s-.09,0-.15,0-.4,0-.16,0-.13,0-.2-.07c-.26-.08.19.12,0,0-.05,0-.2-.17-.26-.17s.25.23.06,0a1.14,1.14,0,0,1-.11-.11l-.11-.12c-.16-.18.05,0,0,.05s-.3-.5-.33-.56c-.13-.25.07.23,0,0l-.12-.37c0-.14-.07-.28-.1-.42l0-.2c0-.12,0-.18,0,0,0-.33-.05-.66-.07-1a23.63,23.63,0,0,0-.21-2.38,1.51,1.51,0,0,0-1.85-1.05,1.55,1.55,0,0,0-1.05,1.84Z" transform="translate(-296.23 -287.3)"/></g><g class="cls-16"><path class="cls-8" d="M408.76,587.94c-1.11,3.88-2.41,8.68-.28,12.46a4.09,4.09,0,0,0,4.94,2.1,8.33,8.33,0,0,0,4.16-4.15,12.71,12.71,0,0,0,1.45-6.48,1.53,1.53,0,0,0-1.5-1.5,1.51,1.51,0,0,0-1.5,1.5,9.78,9.78,0,0,1-1.24,5.34,7.16,7.16,0,0,1-1.56,2c-.5.42-1.09.68-1.52.44a2.65,2.65,0,0,1-.95-1.47,9.27,9.27,0,0,1-.38-3,25.51,25.51,0,0,1,1.27-6.46,1.5,1.5,0,0,0-2.89-.8Z" transform="translate(-296.23 -287.3)"/></g><g class="cls-16"><path class="cls-8" d="M605.52,631.27v6c0,1.57-.09,3.37.85,4.72a3.46,3.46,0,0,0,2.29,1.48,10,10,0,0,0,2.62,0,6.79,6.79,0,0,0,4.64-2c1.34-1.56,1.48-3.63,1.43-5.6a1.5,1.5,0,0,0-3,0c0,.44,0,.89,0,1.34a4.69,4.69,0,0,1-.09.92,2.31,2.31,0,0,1-.92,1.67c.15-.11-.29.16-.34.19s-.19.09-.07,0l-.3.1a7,7,0,0,1-1.1.26c-.19,0-.22,0-.09,0l-.32,0-.58,0a7.07,7.07,0,0,1-1.3,0c.21,0-.51-.16-.23-.07-.14-.09-.15-.09,0,0l-.09-.1c-.12-.12-.12-.13,0,0l-.13-.23c.14.26-.07-.23-.09-.3s-.12-.61-.08-.32c0-.15,0-.3,0-.45,0-.45,0-.91,0-1.36v-6.38a1.53,1.53,0,0,0-1.5-1.5,1.51,1.51,0,0,0-1.5,1.5Z" transform="translate(-296.23 -287.3)"/></g><g class="cls-16"><path class="cls-8" d="M621.55,608.53a13.39,13.39,0,0,0,.46,4.18,14.12,14.12,0,0,0,.79,2.08,5.73,5.73,0,0,0,1,1.66,2.94,2.94,0,0,0,4.28-.18,8.87,8.87,0,0,0,1.92-3.76,14,14,0,0,0,.51-4.73,1.54,1.54,0,0,0-1.5-1.5,1.52,1.52,0,0,0-1.5,1.5,11.88,11.88,0,0,1,0,2.15l0,.28c0-.16,0-.15,0,0s-.06.38-.1.56c-.07.33-.15.66-.24,1s-.21.64-.33,1c0,.09-.07.18-.1.26,0-.13,0-.12,0,0l-.24.49-.18.31-.14.21c.11-.14.11-.15,0,0s-.22.23-.34.33c.37-.3-.27.1,0,0,.11,0,.11,0,0,0s-.14,0,.08,0,.25,0,.08,0c.18.09.19.09.05,0,.14.12.16.13,0,0s-.1-.11,0,0,0,.08,0,0l-.12-.2a8.67,8.67,0,0,1-.49-1c-.13-.29,0,.16-.07-.17-.06-.17-.13-.35-.19-.53s-.19-.63-.27-1l-.12-.55c0-.06-.1-.63-.06-.3a11.54,11.54,0,0,1-.07-2.12,1.52,1.52,0,0,0-1.5-1.5,1.54,1.54,0,0,0-1.5,1.5Z" transform="translate(-296.23 -287.3)"/></g><g class="cls-16"><path class="cls-8" d="M623.12,646.26a12.7,12.7,0,0,0-.15,3.79,6.8,6.8,0,0,0,1.45,3.42,4.63,4.63,0,0,0,6.1,1.18,3.94,3.94,0,0,0,1.87-3.41,1.5,1.5,0,0,0-3,0,1.63,1.63,0,0,0,0,.38c0-.23,0-.29,0-.17a.74.74,0,0,1,0,.14.58.58,0,0,1-.06.17c.1-.21.11-.25,0-.1a2.77,2.77,0,0,0-.15.24c.14-.18.16-.2,0-.08a.86.86,0,0,1-.13.14s-.19.2-.22.19c.18-.13.2-.15.07-.06l-.12.08s-.29.17-.31.15c.21-.08.24-.1.09,0l-.1,0-.19,0c-.16,0-.12,0,.11,0-.09,0-.19,0-.29,0H628c.23,0,.26,0,.09,0l-.3-.07-.19-.07.12,0c-.21-.11-.41-.23-.62-.36l.1.08-.15-.14-.23-.22-.14-.16c-.1-.12-.09-.11,0,.06a1.1,1.1,0,0,0-.18-.26,2.27,2.27,0,0,1-.35-.65c.09.2.1.22,0,.07l-.06-.18a3.45,3.45,0,0,1-.12-.43c0-.12,0-.25-.08-.37s0-.17,0,0l0-.26a8.72,8.72,0,0,1,0-.89q0-.45.06-.9c0-.13,0-.25,0-.38-.06.37,0-.17,0-.24a1.5,1.5,0,0,0-2.89-.8Z" transform="translate(-296.23 -287.3)"/></g><path class="cls-13" d="M449.8,531.7s-16.68,4.26-19.29,8-14.73,20.88-15.24,24.92,0,16.17,0,16.17" transform="translate(-296.23 -287.3)"/><path class="cls-11" d="M514.76,539a59.75,59.75,0,0,0-7.77,2.19c-2,.74-3.87,1.69-5.89,2.32a10.92,10.92,0,0,1-6.22.33" transform="translate(-296.23 -287.3)"/><path class="cls-11" d="M515.26,542.29c-1.54,1.85-4.05,2.52-6.39,3.09-4.32,1-8.65,2.1-13.05,2.75" transform="translate(-296.23 -287.3)"/><path class="cls-11" d="M551.18,531.43a32.41,32.41,0,0,0,14.49,5.49,97.09,97.09,0,0,0,15.63.6,26.2,26.2,0,0,0,5-.41,21.2,21.2,0,0,0,4.39-1.6,63.27,63.27,0,0,0,13.23-8.3" transform="translate(-296.23 -287.3)"/><path class="cls-11" d="M557.6,532.3a46.12,46.12,0,0,0,40-2.44" transform="translate(-296.23 -287.3)"/><path class="cls-11" d="M557.19,536.9l5.86,1.41" transform="translate(-296.23 -287.3)"/><path class="cls-11" d="M567.61,538.49l10.42.72" transform="translate(-296.23 -287.3)"/><path class="cls-11" d="M582.4,539.52c3.19.87,6.54-.31,9.59-1.57,2.27-.94,4.53-1.93,6.76-3" transform="translate(-296.23 -287.3)"/><path class="cls-11" d="M552.89,537.41a14.82,14.82,0,0,0,9.55,4.71,43.92,43.92,0,0,0,10.86-.4" transform="translate(-296.23 -287.3)"/><path class="cls-11" d="M578.22,542.16l7.19.36a4.69,4.69,0,0,0,2.3-.27" transform="translate(-296.23 -287.3)"/><path class="cls-11" d="M599.84,536.2a7.18,7.18,0,0,0,4.38-4.58" transform="translate(-296.23 -287.3)"/><path class="cls-11" d="M494.87,541.77a9.06,9.06,0,0,0,7.77-2" transform="translate(-296.23 -287.3)"/><path class="cls-11" d="M506.39,539.9a18.26,18.26,0,0,0,5.93-4.09" transform="translate(-296.23 -287.3)"/><path class="cls-11" d="M497.31,546.5a12.32,12.32,0,0,0,6.45-.83,36.54,36.54,0,0,0,5.81-3" transform="translate(-296.23 -287.3)"/><path class="cls-11" d="M492.39,550.9l9,.18a5.22,5.22,0,0,0,3.49-.75" transform="translate(-296.23 -287.3)"/></g></g></svg>